# xmcd
#
# Track frame offsets:
#	225
#	16687
#	30817
#	46135
#	55237
#	74407
#	86385
#	99790
#	114782
#	126190
#	138630
#	149000
#	163765
#	175312
#	187180
#	201582
#	214327
#	227692
#	249645
#	260580
#	275682
#
# Disc length: 3867 seconds
# Revision: 2
# Processed by: cddbd v1.5.2PL0 Copyright (c) Steve Scherf et al.
# Submitted via: dBpowerAMP V12.0
#
DISCID=350f1815
DTITLE=Various Artist - Country Soft N Mellow Disc 4 
DYEAR=1989
DGENRE=Country
TTITLE0=Dan Seals - Bop
TTITLE1=Jerry Reed - Bad  Bad Leroy Brown
TTITLE2=Eddie Rabbit - The Wanderer
TTITLE3=Floyd Cramer - Misty Blue
TTITLE4=Danny Davis and The Nashville Brass - I Can't Stop Loving You and Elvira (Medley)
TTITLE5=Jerry Reed and Chet Atkins - Limehouse Blues
TTITLE6=Floyd Cramer With Chorus - By The Time I Get To Phoenix
TTITLE7=Chet Atkins - Detroit City
TTITLE8=Chet ATkins - Cold Cold Heart
TTITLE9=Ray Price - He's Got The Whole World In His Hands
TTITLE10=Dolly Parton - I Believe
TTITLE11=Eddy Arnold - Crying In The Chapel
TTITLE12=Dottie West - Put Your Hand in The Hand
TTITLE13=Jim Reeves - May The Good Lord Bless and Keep You
TTITLE14=Eddy Arnold - My Sweet Lord
TTITLE15=Charlie Pride - The Church In The Wildwood
TTITLE16=Jim Reeves - It Is No Secret
TTITLE17=Ray Price - How Great Thou Art
TTITLE18=Christy Lane - Amazing Grace
TTITLE19=Barbara Mandrell With Male Vocal - What a Friend We Have In Jesus
TTITLE20=Charlie Pride - Whispering Hope
EXTD=
EXTT0=
EXTT1=
EXTT2=
EXTT3=
EXTT4=
EXTT5=
EXTT6=
EXTT7=
EXTT8=
EXTT9=
EXTT10=
EXTT11=
EXTT12=
EXTT13=
EXTT14=
EXTT15=
EXTT16=
EXTT17=
EXTT18=
EXTT19=
EXTT20=
PLAYORDER=
